<svg xmlns="http://www.w3.org/2000/svg" version="1.1" xmlns:xlink="http://www.w3.org/1999/xlink" width="1000" height="1000"><g clip-path="url(#SvgjsClipPath1165)"><rect width="1000" height="1000" fill="#101828"></rect><g transform="matrix(1.8604651162790697,0,0,1.8604651162790697,100,100)"><svg xmlns="http://www.w3.org/2000/svg" version="1.1" xmlns:xlink="http://www.w3.org/1999/xlink" width="430" height="430"><svg xmlns="http://www.w3.org/2000/svg" width="430" height="430" fill="none" viewBox="0 0 430 430"><g stroke="#fff" stroke-linecap="round" stroke-linejoin="round" stroke-miterlimit="10" stroke-width="12"><path d="M215.1 95V37m-42 231.5v-94.9M96.5 297.3h81.1m156.1-.2h-81m-61.4-28.6h-18.2m84 0h-18.2m18.2-94.9v94.9m-160.6 0v123.9m237.2-123.9v123.9m-66.1-232.3v.3c0 7.5-6.1 13.6-13.6 13.6h-77.7c-7.5 0-13.6-6.1-13.6-13.6v-.3c0-7 4.1-13.1 10-16.1 8.5-4.2 15.8-10.4 22-17.6 9.6-11.2 20.4-25.4 20.5-31.5 0 6.1 10.9 20.3 20.5 31.5 6.1 7.2 13.5 13.4 22 17.6 5.8 3 9.9 9.1 9.9 16.1M289 268.5v-82.2m-50.1 82.2h136.3v123.9H55V268.5h136.3m154.5-82.2v82.2m7.8-91.6v.2c0 5.2-4.2 9.4-9.4 9.4h-53.7c-5.2 0-9.4-4.2-9.4-9.4v-.2c0-4.9 2.8-9.1 6.9-11.1 5.9-2.9 10.9-7.2 15.2-12.1 6.6-7.8 14.2-17.5 14.2-21.8 0 4.2 7.5 14 14.1 21.8 4.2 5 9.3 9.3 15.2 12.1 4.1 2 6.9 6.2 6.9 11.1M84.1 268.5v-82.2m56.8 0v82.2m7.8-91.6v.2c0 5.2-4.2 9.4-9.4 9.4H85.6c-5.2 0-9.4-4.2-9.4-9.4v-.2c0-4.9 2.8-9.1 6.9-11.1 5.9-2.9 10.9-7.2 15.2-12.1 6.6-7.8 14.2-17.5 14.2-21.8 0 4.2 7.5 14 14.1 21.8 4.2 5 9.3 9.3 15.2 12.1 4.1 2 6.9 6.2 6.9 11.1"></path><path d="M173.1 392.4v-65.6c0-28.2 11.6-55.1 32-74.5l9.9-9.4 9.9 9.4c20.5 19.4 32.1 46.3 32.1 74.6v65.6M226.5 49.7h-22.8m32.6 18.5h-42.4m33.6 29.3-24.8-10.1m-90.2 158V212m87.6 9.7v-23.5m30 23.5v-23.5m87.3 47.2V212m-61.3 100.3h-82m41 79.7v-79.7"></path></g></svg></svg></g></g><defs><clipPath id="SvgjsClipPath1165"><rect width="1000" height="1000" x="0" y="0" rx="350" ry="350"></rect></clipPath></defs></svg>